<svg width="31" height="31" viewBox="0 0 31 31" fill="none" xmlns="http://www.w3.org/2000/svg">
<g clip-path="url(#clip0_1_96)">
<path d="M15.5 27.125C21.9203 27.125 27.125 21.9203 27.125 15.5C27.125 9.07969 21.9203 3.875 15.5 3.875C9.07969 3.875 3.875 9.07969 3.875 15.5C3.875 21.9203 9.07969 27.125 15.5 27.125Z" stroke="white" stroke-width="1.9375" stroke-linecap="round" stroke-linejoin="round"/>
<path d="M19.1167 11.625C18.8827 11.2191 18.5427 10.8845 18.1332 10.6569C17.7236 10.4294 17.2599 10.3175 16.7917 10.3333H14.2083C13.5232 10.3333 12.8661 10.6055 12.3816 11.09C11.8972 11.5744 11.625 12.2315 11.625 12.9166C11.625 13.6018 11.8972 14.2589 12.3816 14.7433C12.8661 15.2278 13.5232 15.5 14.2083 15.5H16.7917C17.4768 15.5 18.1339 15.7722 18.6184 16.2566C19.1028 16.7411 19.375 17.3982 19.375 18.0833C19.375 18.7685 19.1028 19.4255 18.6184 19.91C18.1339 20.3945 17.4768 20.6666 16.7917 20.6666H14.2083C13.7401 20.6824 13.2764 20.5705 12.8668 20.343C12.4573 20.1155 12.1173 19.7809 11.8833 19.375" stroke="black" stroke-width="1.9375" stroke-linecap="round" stroke-linejoin="round"/>
<path d="M15.5 7.75V10.3333M15.5 20.6667V23.25" stroke="black" stroke-width="1.9375" stroke-linecap="round" stroke-linejoin="round"/>
</g>
<defs>
<clipPath id="clip0_1_96">
<rect width="31" height="31" fill="white"/>
</clipPath>
</defs>
</svg>
