<svg width="20" height="20" viewBox="0 0 20 20" fill="none" xmlns="http://www.w3.org/2000/svg">
<path d="M16.1415 5.51698V2.15472C16.1415 1.85748 16.0234 1.57241 15.8133 1.36223C15.6031 1.15205 15.318 1.03397 15.0208 1.03397H3.81323C3.21874 1.03397 2.6486 1.27012 2.22824 1.69049C1.80787 2.11085 1.57172 2.68099 1.57172 3.27548C1.57172 3.86996 1.80787 4.4401 2.22824 4.86046C2.6486 5.28083 3.21874 5.51698 3.81323 5.51698H17.2623C17.5595 5.51698 17.8446 5.63506 18.0548 5.84525C18.265 6.05543 18.383 6.3405 18.383 6.63774V10M18.383 14.483V17.8453C18.383 18.1425 18.265 18.4276 18.0548 18.6378C17.8446 18.848 17.5595 18.966 17.2623 18.966H3.81323C3.21874 18.966 2.6486 18.7299 2.22824 18.3095C1.80787 17.8892 1.57172 17.319 1.57172 16.7245V3.27548" stroke="#FFBD3E" stroke-width="1.68113" stroke-linecap="round" stroke-linejoin="round"/>
<path d="M19.1302 7.75848V12.2415H14.6471C14.0527 12.2415 13.4825 12.0053 13.0622 11.585C12.6418 11.1646 12.4056 10.5945 12.4056 9.99999C12.4056 9.40551 12.6418 8.83537 13.0622 8.41501C13.4825 7.99464 14.0527 7.75848 14.6471 7.75848H19.1302Z" stroke="#FFBD3E" stroke-width="1.68113" stroke-linecap="round" stroke-linejoin="round"/>
</svg>
