<svg width="487" height="364" viewBox="0 0 487 364" fill="none" xmlns="http://www.w3.org/2000/svg">
<path d="M122.639 112.82C120.343 116.532 117.242 120.22 113.335 123.883C109.427 127.497 104.959 130.769 99.928 133.7C94.9462 136.581 89.5005 138.901 83.5908 140.659C77.681 142.466 71.576 143.37 65.2755 143.37C60.3426 143.37 55.4097 142.93 50.4768 142.051C45.5927 141.172 40.8796 139.829 36.3374 138.022C31.8441 136.215 27.6438 133.944 23.7366 131.209C19.8781 128.425 16.5081 125.152 13.6265 121.392C10.7449 117.631 8.47385 113.357 6.81327 108.571C5.20153 103.785 4.39566 98.461 4.39566 92.6002C4.39566 86.8858 5.22595 81.4645 6.88653 76.3362C8.59595 71.2079 10.9647 66.4704 13.9928 62.1236C17.021 57.7279 20.6108 53.7718 24.7622 50.2553C28.9137 46.7388 33.4558 43.7595 38.3887 41.3175C43.3217 38.8266 48.5232 36.9218 53.9933 35.6031C59.4635 34.2844 65.0557 33.6251 70.7701 33.6251C77.0705 33.6251 82.9803 34.3821 88.4993 35.8962C94.0671 37.3614 98.9267 39.4615 103.078 42.1966C107.23 44.8828 110.502 48.1307 112.895 51.9403C115.337 55.701 116.558 59.9013 116.558 64.5412C116.558 68.8392 115.557 72.9418 113.555 76.849C111.552 80.7075 108.793 84.1019 105.276 87.0323C101.808 89.9628 97.7301 92.2827 93.0414 93.9921C88.4016 95.7015 83.4442 96.5562 78.1695 96.5562C73.9203 96.5562 70.1596 96.0434 66.8873 95.0178C63.6149 93.9433 60.8799 92.4781 58.682 90.6221C56.4842 88.7662 54.8236 86.5928 53.7003 84.1019C52.577 81.611 52.0153 78.9248 52.0153 76.0432C52.0153 73.65 52.3816 71.4766 53.1142 69.5229C53.8957 67.5205 54.7259 65.8111 55.6051 64.3947C56.533 62.9783 57.3878 61.8794 58.1692 61.0979C58.9995 60.2676 59.4635 59.8037 59.5612 59.706C59.8054 59.4618 60.074 59.3153 60.367 59.2664C60.7089 59.1687 61.0264 59.1199 61.3194 59.1199C62.1009 59.1199 62.7602 59.3641 63.2975 59.8525C63.8347 60.3409 64.1033 60.9758 64.1033 61.7573C64.1033 62.6364 63.7859 63.369 63.151 63.9551C63.0533 64.004 62.7114 64.3458 62.1253 64.9808C61.5392 65.5669 60.9043 66.3971 60.2205 67.4716C59.5367 68.4973 58.9018 69.7427 58.3157 71.2079C57.7785 72.6732 57.5099 74.2849 57.5099 76.0432C57.5099 78.8271 58.1204 81.1714 59.3414 83.0762C60.6112 84.981 62.2474 86.5439 64.2499 87.7649C66.2523 88.9371 68.4746 89.7918 70.9166 90.3291C73.3587 90.8175 75.8007 91.0617 78.2427 91.0617C82.7849 91.0617 87.034 90.3291 90.9901 88.8638C94.9951 87.3986 98.4872 85.445 101.466 83.003C104.446 80.5609 106.79 77.7526 108.499 74.578C110.209 71.4033 111.064 68.0821 111.064 64.6145C111.064 60.8049 109.989 57.3372 107.84 54.2114C105.691 51.0368 102.785 48.3505 99.1221 46.1527C95.459 43.906 91.1611 42.1722 86.2282 40.9512C81.3441 39.7302 76.1181 39.1196 70.5503 39.1196C66.35 39.1196 61.9299 39.6325 57.2901 40.6581C52.6991 41.6349 48.1569 43.1246 43.6635 45.127C39.1702 47.1295 34.8722 49.6204 30.7696 52.5997C26.7158 55.5789 23.1505 59.071 20.0735 63.076C16.9965 67.0321 14.5301 71.4766 12.6741 76.4095C10.867 81.3424 9.96349 86.7393 9.96349 92.6002C9.96349 97.9238 10.6961 102.735 12.1613 107.033C13.6754 111.331 15.7511 115.165 18.3885 118.535C21.0259 121.856 24.1029 124.737 27.6194 127.179C31.1848 129.621 34.9943 131.648 39.0481 133.26C43.1507 134.823 47.4243 135.995 51.8688 136.777C56.3133 137.509 60.7333 137.875 65.129 137.875C70.9899 137.875 76.631 137.07 82.0523 135.458C87.4736 133.797 92.4798 131.648 97.0708 129.011C101.711 126.325 105.813 123.321 109.379 120C112.944 116.679 115.777 113.333 117.877 109.963C118.121 109.523 118.463 109.206 118.903 109.011C119.342 108.766 119.806 108.644 120.295 108.644C121.125 108.644 121.784 108.937 122.273 109.523C122.761 110.061 123.005 110.671 123.005 111.355C123.005 111.599 122.981 111.843 122.932 112.088C122.883 112.332 122.785 112.576 122.639 112.82ZM164.031 131.941C162.81 131.941 161.736 131.844 160.808 131.648C160.075 133.113 159.196 134.481 158.17 135.751C157.145 136.972 155.948 138.046 154.581 138.974C153.262 139.902 151.772 140.635 150.112 141.172C148.451 141.709 146.644 141.978 144.69 141.978C142.395 141.978 140.295 141.563 138.39 140.733C136.485 139.951 134.825 138.852 133.408 137.436C131.992 135.971 130.893 134.237 130.111 132.234C129.33 130.183 128.939 127.936 128.939 125.494C128.939 122.369 129.501 119.658 130.624 117.362C131.748 115.018 133.042 113.089 134.507 111.575C135.972 110.012 137.438 108.864 138.903 108.131C140.368 107.35 141.467 106.959 142.2 106.959C143.03 106.959 143.64 107.179 144.031 107.619C144.471 108.058 144.69 108.644 144.69 109.377C144.69 110.207 144.422 110.842 143.885 111.282C143.396 111.672 142.761 112.063 141.98 112.454C141.198 112.845 140.368 113.406 139.489 114.139C138.61 114.823 137.779 115.702 136.998 116.776C136.265 117.851 135.655 119.121 135.166 120.586C134.678 122.051 134.434 123.687 134.434 125.494C134.434 127.106 134.678 128.62 135.166 130.037C135.655 131.404 136.363 132.601 137.291 133.626C138.219 134.603 139.318 135.385 140.588 135.971C141.858 136.508 143.274 136.777 144.837 136.777C147.621 136.777 149.916 136.142 151.723 134.872C153.579 133.553 154.996 131.892 155.973 129.89C153.091 128.376 150.722 126.227 148.866 123.443C147.01 120.659 146.082 117.533 146.082 114.066C146.082 111.282 146.742 109.011 148.06 107.252C149.428 105.494 151.211 104.615 153.408 104.615C154.727 104.615 155.973 104.932 157.145 105.567C158.317 106.202 159.343 107.204 160.222 108.571C161.15 109.939 161.882 111.697 162.42 113.846C162.957 115.995 163.225 118.559 163.225 121.538C163.225 123.101 163.03 124.737 162.639 126.447C162.932 126.496 163.225 126.52 163.518 126.52C163.812 126.52 164.129 126.52 164.471 126.52C166.131 126.52 167.621 126.325 168.94 125.934C170.258 125.543 171.455 124.957 172.53 124.176C173.604 123.394 174.556 122.393 175.387 121.172C176.266 119.951 177.096 118.535 177.878 116.923C178.024 116.63 178.342 116.361 178.83 116.117C179.318 115.824 179.807 115.677 180.295 115.677C180.93 115.677 181.516 115.946 182.054 116.483C182.64 116.972 182.933 117.631 182.933 118.461C182.933 118.852 182.835 119.292 182.64 119.78C182.444 120.22 182.249 120.635 182.054 121.025C181.223 122.491 180.246 123.907 179.123 125.275C178.049 126.593 176.754 127.765 175.24 128.791C173.775 129.768 172.114 130.549 170.258 131.135C168.403 131.722 166.327 131.99 164.031 131.941ZM151.504 113.48C151.504 114.408 151.626 115.384 151.87 116.41C152.114 117.436 152.481 118.461 152.969 119.487C153.506 120.464 154.141 121.416 154.874 122.344C155.655 123.223 156.559 123.98 157.584 124.615C157.731 123.59 157.804 122.588 157.804 121.611C157.804 120.293 157.706 118.95 157.511 117.582C157.316 116.215 157.023 114.969 156.632 113.846C156.29 112.674 155.851 111.746 155.313 111.062C154.776 110.329 154.141 109.963 153.408 109.963C153.115 109.963 152.725 110.183 152.236 110.622C151.748 111.062 151.504 112.014 151.504 113.48ZM194.654 133.48C195.387 132.015 196.315 130.207 197.438 128.058C198.61 125.861 199.807 123.663 201.028 121.465C202.298 119.267 203.519 117.191 204.691 115.238C205.912 113.284 206.938 111.795 207.768 110.769C209.184 109.059 210.65 107.838 212.164 107.106C213.678 106.373 215.07 106.007 216.34 106.007C217.61 106.007 218.684 106.276 219.563 106.813C220.491 107.35 221.248 108.083 221.834 109.011C222.42 109.89 222.86 110.94 223.153 112.161C223.446 113.333 223.592 114.603 223.592 115.97C223.592 116.752 223.544 117.778 223.446 119.047C223.397 120.317 223.324 121.685 223.226 123.15C223.177 124.615 223.104 126.129 223.006 127.692C222.958 129.255 222.909 130.72 222.86 132.088C223.592 130.623 224.423 129.011 225.351 127.253C226.279 125.445 227.207 123.663 228.135 121.905C229.111 120.146 230.039 118.51 230.919 116.996C231.798 115.433 232.604 114.163 233.336 113.186C235.436 110.305 237.39 108.376 239.197 107.399C241.053 106.422 242.689 105.934 244.106 105.934C245.766 105.934 247.134 106.251 248.208 106.886C249.283 107.472 250.113 108.254 250.699 109.23C251.334 110.158 251.774 111.208 252.018 112.381C252.262 113.553 252.384 114.676 252.384 115.751C252.384 117.411 252.262 119.145 252.018 120.952C251.774 122.759 251.651 124.908 251.651 127.399C251.651 128.425 251.7 129.45 251.798 130.476C251.896 131.502 252.091 132.405 252.384 133.187C252.726 133.968 253.239 134.603 253.923 135.092C254.606 135.58 255.534 135.824 256.706 135.824C257.976 135.824 259.222 135.507 260.443 134.872C261.664 134.188 262.836 133.309 263.959 132.234C265.083 131.16 266.133 129.939 267.11 128.571C268.135 127.204 269.063 125.836 269.893 124.469C270.724 123.101 271.456 121.807 272.091 120.586C272.726 119.316 273.239 118.241 273.63 117.362C273.874 116.825 274.216 116.41 274.655 116.117C275.095 115.824 275.583 115.677 276.121 115.677C276.951 115.677 277.61 115.995 278.099 116.63C278.636 117.216 278.905 117.851 278.905 118.535C278.905 118.876 278.831 119.218 278.685 119.56C278.489 119.951 278.099 120.781 277.513 122.051C276.926 123.272 276.145 124.688 275.168 126.3C274.191 127.863 273.044 129.524 271.725 131.282C270.455 133.04 269.039 134.676 267.476 136.19C265.913 137.656 264.228 138.877 262.421 139.853C260.614 140.781 258.709 141.245 256.706 141.245C254.557 141.245 252.799 140.855 251.432 140.073C250.113 139.341 249.038 138.339 248.208 137.07C247.427 135.8 246.889 134.334 246.596 132.674C246.303 131.013 246.157 129.279 246.157 127.472C246.157 125.079 246.279 122.881 246.523 120.879C246.767 118.828 246.889 117.24 246.889 116.117C246.889 114.896 246.767 113.968 246.523 113.333C246.328 112.698 246.059 112.259 245.717 112.014C245.424 111.721 245.131 111.575 244.838 111.575C244.545 111.526 244.325 111.501 244.179 111.501C243.007 111.501 241.761 112.161 240.443 113.48C239.173 114.749 237.854 116.459 236.486 118.608C235.119 120.757 233.703 123.199 232.237 125.934C230.821 128.669 229.38 131.453 227.915 134.286C227.085 135.849 226.376 137.143 225.79 138.168C225.253 139.194 224.716 140 224.179 140.586C223.69 141.172 223.202 141.587 222.713 141.832C222.225 142.076 221.688 142.198 221.102 142.198C219.832 142.198 218.855 141.758 218.171 140.879C217.536 140 217.219 138.852 217.219 137.436C217.219 136.703 217.243 135.726 217.292 134.505C217.341 133.284 217.39 131.941 217.439 130.476C217.487 129.011 217.561 127.497 217.658 125.934C217.756 124.371 217.829 122.881 217.878 121.465C217.927 120 217.976 118.705 218.025 117.582C218.073 116.459 218.098 115.604 218.098 115.018C218.098 113.748 217.878 112.845 217.439 112.307C216.999 111.721 216.486 111.428 215.9 111.428C215.363 111.428 214.752 111.624 214.069 112.014C213.434 112.405 212.677 113.162 211.797 114.285C211.114 115.165 210.235 116.459 209.16 118.168C208.134 119.829 207.036 121.685 205.863 123.736C204.691 125.787 203.519 127.888 202.347 130.037C201.223 132.185 200.247 134.115 199.416 135.824C198.391 137.875 197.365 139.267 196.339 140C195.314 140.781 194.313 141.172 193.336 141.172C191.919 141.172 190.869 140.757 190.185 139.927C189.502 139.048 189.16 137.9 189.16 136.483C189.16 136.337 189.184 135.458 189.233 133.846C189.331 132.234 189.428 130.281 189.526 127.985C189.624 125.641 189.722 123.15 189.819 120.513C189.966 117.875 190.088 115.409 190.185 113.113C190.234 111.892 190.185 110.769 190.039 109.743C189.892 108.718 189.697 108.107 189.453 107.912C189.062 108.009 188.281 108.913 187.109 110.622C185.985 112.332 184.544 115.311 182.786 119.56C182.542 120.097 182.176 120.513 181.687 120.806C181.199 121.099 180.686 121.245 180.149 121.245C179.318 121.245 178.659 120.977 178.171 120.439C177.682 119.853 177.438 119.194 177.438 118.461C177.438 118.119 177.511 117.753 177.658 117.362C179.856 112.136 181.956 108.302 183.958 105.86C185.961 103.37 187.914 102.124 189.819 102.124C190.943 102.124 191.87 102.393 192.603 102.93C193.385 103.418 193.995 104.078 194.435 104.908C194.874 105.689 195.192 106.593 195.387 107.619C195.582 108.644 195.68 109.646 195.68 110.622C195.68 114.969 195.558 118.95 195.314 122.564C195.118 126.178 194.899 129.817 194.654 133.48ZM285.645 82.4901C285.645 84.3461 284.985 85.9334 283.666 87.2521C282.397 88.522 280.834 89.1569 278.978 89.1569C277.122 89.1569 275.535 88.522 274.216 87.2521C272.946 85.9334 272.311 84.3461 272.311 82.4901C272.311 81.5622 272.482 80.7075 272.824 79.926C273.166 79.0957 273.63 78.3875 274.216 77.8014C274.851 77.1665 275.559 76.6781 276.34 76.3362C277.171 75.9943 278.05 75.8234 278.978 75.8234C279.906 75.8234 280.76 75.9943 281.542 76.3362C282.372 76.6781 283.08 77.1665 283.666 77.8014C284.301 78.3875 284.79 79.0957 285.132 79.926C285.474 80.7075 285.645 81.5622 285.645 82.4901ZM273.776 125.421C273.776 118.388 274.216 111.379 275.095 104.395C275.193 103.711 275.486 103.125 275.974 102.637C276.511 102.1 277.195 101.831 278.025 101.831C278.758 101.831 279.368 102.124 279.857 102.71C280.345 103.247 280.59 103.882 280.59 104.615C280.59 104.908 280.516 105.787 280.37 107.252C280.272 108.718 280.126 110.476 279.93 112.527C279.784 114.53 279.637 116.679 279.491 118.974C279.393 121.221 279.344 123.296 279.344 125.201C279.344 127.79 279.588 129.89 280.077 131.502C280.614 133.065 281.273 134.286 282.055 135.165C282.885 136.044 283.74 136.63 284.619 136.923C285.547 137.216 286.426 137.363 287.256 137.363C288.624 137.363 290.04 136.874 291.505 135.897C292.971 134.921 294.46 133.553 295.974 131.795C297.537 130.037 299.1 127.936 300.663 125.494C302.226 123.003 303.764 120.244 305.278 117.216C305.523 116.727 305.865 116.361 306.304 116.117C306.744 115.824 307.232 115.677 307.769 115.677C308.551 115.677 309.186 115.97 309.674 116.556C310.211 117.143 310.48 117.778 310.48 118.461C310.48 118.95 310.382 119.365 310.187 119.707C309.601 120.83 308.868 122.198 307.989 123.809C307.11 125.421 306.109 127.082 304.985 128.791C303.862 130.5 302.617 132.21 301.249 133.919C299.93 135.58 298.514 137.094 297 138.462C295.486 139.78 293.899 140.855 292.238 141.685C290.577 142.515 288.892 142.93 287.183 142.93C284.985 142.93 283.056 142.466 281.395 141.538C279.735 140.611 278.318 139.365 277.146 137.802C276.023 136.239 275.168 134.408 274.582 132.308C274.045 130.159 273.776 127.863 273.776 125.421ZM281.542 82.4901C281.542 81.8064 281.273 81.2203 280.736 80.7319C280.248 80.1946 279.662 79.926 278.978 79.926C278.294 79.926 277.708 80.1946 277.22 80.7319C276.731 81.2203 276.487 81.8064 276.487 82.4901C276.487 83.1739 276.731 83.76 277.22 84.2484C277.708 84.7368 278.294 84.981 278.978 84.981C279.662 84.981 280.248 84.7368 280.736 84.2484C281.273 83.76 281.542 83.1739 281.542 82.4901ZM321.469 133.407C322.251 131.795 323.154 130.037 324.18 128.132C325.205 126.178 326.304 124.224 327.477 122.271C328.649 120.268 329.87 118.29 331.14 116.337C332.458 114.383 333.826 112.527 335.242 110.769C336.659 109.059 338.075 107.838 339.491 107.106C340.957 106.324 342.324 105.934 343.594 105.934C346.134 105.934 348.014 106.862 349.235 108.718C350.456 110.574 351.067 112.869 351.067 115.604C351.067 116.239 351.018 117.02 350.92 117.948C350.871 118.828 350.798 119.78 350.7 120.806C350.651 121.831 350.578 122.881 350.48 123.956C350.432 124.982 350.407 125.958 350.407 126.886C350.407 128.058 350.456 129.182 350.554 130.256C350.7 131.331 350.944 132.283 351.286 133.113C351.628 133.895 352.117 134.53 352.752 135.018C353.387 135.458 354.217 135.678 355.242 135.678C357.098 135.678 358.906 134.969 360.664 133.553C362.422 132.088 364.034 130.378 365.499 128.425C367.013 126.422 368.307 124.395 369.382 122.344C370.505 120.293 371.335 118.632 371.873 117.362C372.117 116.825 372.459 116.41 372.898 116.117C373.387 115.824 373.9 115.677 374.437 115.677C375.267 115.677 375.926 115.995 376.415 116.63C376.952 117.216 377.221 117.851 377.221 118.535C377.221 118.876 377.147 119.218 377.001 119.56C376.806 119.951 376.415 120.757 375.829 121.978C375.243 123.199 374.461 124.615 373.484 126.227C372.556 127.79 371.458 129.475 370.188 131.282C368.918 133.04 367.501 134.652 365.939 136.117C364.424 137.582 362.764 138.803 360.957 139.78C359.199 140.757 357.343 141.245 355.389 141.245C353.191 141.245 351.408 140.83 350.041 140C348.673 139.121 347.599 137.998 346.817 136.63C346.036 135.214 345.499 133.675 345.206 132.015C344.961 130.305 344.839 128.596 344.839 126.886C344.839 126.154 344.864 125.323 344.913 124.395C345.01 123.467 345.108 122.491 345.206 121.465C345.352 120.439 345.45 119.414 345.499 118.388C345.596 117.362 345.645 116.386 345.645 115.458C345.645 113.895 345.401 112.845 344.913 112.307C344.424 111.721 343.985 111.428 343.594 111.428C342.813 111.428 341.909 111.892 340.883 112.82C339.906 113.699 338.856 114.871 337.733 116.337C336.659 117.802 335.535 119.463 334.363 121.318C333.24 123.126 332.165 124.933 331.14 126.74C330.163 128.547 329.235 130.281 328.356 131.941C327.525 133.553 326.866 134.896 326.378 135.971C325.401 138.022 324.424 139.389 323.447 140.073C322.47 140.806 321.469 141.172 320.443 141.172C319.027 141.172 317.879 140.757 317 139.927C316.17 139.048 315.755 137.827 315.755 136.264C315.755 135.922 315.804 135.262 315.901 134.286C315.999 133.26 316.121 132.063 316.268 130.696C316.414 129.279 316.561 127.765 316.707 126.154C316.854 124.542 317 122.955 317.147 121.392C317.293 119.78 317.415 118.29 317.513 116.923C317.611 115.555 317.66 114.408 317.66 113.48C317.66 112.259 317.611 111.086 317.513 109.963C317.415 108.84 317.22 108.156 316.927 107.912C316.487 108.058 315.706 108.986 314.583 110.696C313.459 112.356 312.018 115.311 310.26 119.56C310.016 120.097 309.65 120.513 309.161 120.806C308.673 121.099 308.16 121.245 307.623 121.245C306.793 121.245 306.133 120.977 305.645 120.439C305.156 119.853 304.912 119.194 304.912 118.461C304.912 118.119 304.985 117.753 305.132 117.362C307.33 112.136 309.381 108.302 311.286 105.86C313.239 103.37 315.169 102.124 317.073 102.124C318.197 102.124 319.149 102.417 319.931 103.003C320.712 103.54 321.323 104.273 321.762 105.201C322.251 106.129 322.592 107.155 322.788 108.278C323.032 109.401 323.154 110.549 323.154 111.721C323.154 112.6 323.081 113.968 322.934 115.824C322.837 117.68 322.69 119.682 322.495 121.831C322.299 123.931 322.104 126.032 321.909 128.132C321.762 130.232 321.616 131.99 321.469 133.407ZM398.54 147.18C407.722 135.214 414.095 125.275 417.661 117.362C417.905 116.825 418.222 116.434 418.613 116.19C419.053 115.897 419.541 115.751 420.078 115.751C420.909 115.751 421.592 116.044 422.13 116.63C422.667 117.167 422.936 117.802 422.936 118.535C422.936 118.876 422.862 119.218 422.716 119.56C420.567 124.444 417.514 129.89 413.558 135.897C409.602 141.905 404.596 148.694 398.54 156.264C398.54 159.341 398.564 162.418 398.613 165.495C398.662 168.572 398.686 171.942 398.686 175.605C398.686 179.268 398.589 182.882 398.393 186.447C398.247 190.062 397.954 193.481 397.514 196.704C397.074 199.976 396.464 202.98 395.683 205.715C394.95 208.499 393.973 210.892 392.752 212.895C391.58 214.946 390.139 216.533 388.43 217.657C386.769 218.829 384.791 219.415 382.496 219.415C379.223 219.415 376.708 218.169 374.95 215.679C373.191 213.188 372.312 209.647 372.312 205.056C372.312 202.614 372.532 199.952 372.972 197.07C373.46 194.238 374.144 191.307 375.023 188.279C375.902 185.251 376.952 182.174 378.173 179.048C379.443 175.971 380.835 172.967 382.349 170.037C383.863 167.107 385.499 164.298 387.257 161.612C389.065 158.926 390.969 156.484 392.972 154.286C393.021 150.867 393.045 147.473 393.045 144.103C393.094 140.733 393.167 137.631 393.265 134.798C391.8 136.654 390.041 138.12 387.99 139.194C385.988 140.269 383.985 140.806 381.983 140.806C380.273 140.806 378.71 140.488 377.294 139.853C375.926 139.17 374.754 138.242 373.777 137.07C372.801 135.849 372.044 134.432 371.506 132.82C370.969 131.209 370.701 129.45 370.701 127.546C370.701 123.736 371.335 120.39 372.605 117.509C373.924 114.578 375.585 112.136 377.587 110.183C379.59 108.229 381.787 106.764 384.181 105.787C386.623 104.81 388.967 104.322 391.214 104.322C392.728 104.322 394.12 104.517 395.389 104.908C396.659 105.299 397.734 105.738 398.613 106.227C399.541 106.715 400.249 107.179 400.738 107.619C401.226 108.058 401.495 108.302 401.543 108.351C402.081 108.937 402.349 109.597 402.349 110.329C402.349 111.062 402.081 111.721 401.543 112.307C401.006 112.845 400.371 113.113 399.639 113.113C398.955 113.113 398.295 112.845 397.661 112.307C397.465 112.161 397.197 111.965 396.855 111.721C396.562 111.428 396.146 111.135 395.609 110.842C395.121 110.549 394.51 110.305 393.778 110.11C393.094 109.914 392.264 109.816 391.287 109.816C389.822 109.816 388.21 110.158 386.452 110.842C384.693 111.477 383.057 112.503 381.543 113.919C380.029 115.335 378.759 117.167 377.734 119.414C376.708 121.611 376.195 124.273 376.195 127.399C376.195 129.743 376.708 131.648 377.734 133.113C378.759 134.53 380.347 135.238 382.496 135.238C383.521 135.238 384.596 134.945 385.719 134.359C386.891 133.773 388.015 132.869 389.089 131.648C390.164 130.427 391.091 128.889 391.873 127.033C392.703 125.177 393.289 122.979 393.631 120.439C393.729 119.756 394.046 119.194 394.584 118.754C395.121 118.266 395.756 118.022 396.488 118.022C397.319 118.022 397.954 118.315 398.393 118.901C398.882 119.487 399.126 120.146 399.126 120.879C399.126 120.928 399.101 121.685 399.053 123.15C399.004 124.566 398.955 126.471 398.906 128.864C398.857 131.258 398.784 134.041 398.686 137.216C398.637 140.342 398.589 143.663 398.54 147.18ZM392.972 163.224C390.676 166.398 388.601 169.842 386.745 173.554C384.889 177.314 383.301 181.099 381.983 184.909C380.664 188.719 379.638 192.406 378.906 195.971C378.222 199.586 377.88 202.809 377.88 205.642C377.88 207.449 378.027 208.89 378.32 209.964C378.662 211.039 379.052 211.869 379.492 212.455C379.98 213.041 380.493 213.432 381.03 213.627C381.616 213.823 382.154 213.92 382.642 213.92C384.156 213.92 385.475 213.31 386.598 212.089C387.721 210.868 388.674 209.232 389.455 207.18C390.237 205.178 390.872 202.858 391.36 200.221C391.849 197.583 392.215 194.848 392.459 192.015C392.703 189.231 392.874 186.447 392.972 183.664C393.07 180.88 393.118 178.315 393.118 175.971C393.118 173.871 393.118 171.771 393.118 169.671C393.118 167.571 393.07 165.422 392.972 163.224Z" fill="#2C2222"/>
<path d="M297.616 232.393C297.493 232.967 297.227 233.418 296.816 233.747C296.406 234.075 295.955 234.239 295.463 234.239C294.724 234.239 294.13 234.013 293.678 233.562C293.227 233.07 293.002 232.516 293.002 231.901C293.002 231.285 293.063 230.691 293.186 230.116C293.309 229.501 293.371 228.906 293.371 228.332C293.371 225.337 292.448 222.651 290.602 220.271C288.756 217.892 286.131 215.903 282.726 214.303C279.362 212.662 275.26 211.411 270.42 210.55C265.579 209.688 260.185 209.257 254.237 209.257C249.684 209.257 245.09 209.565 240.455 210.18C235.86 210.755 231.43 211.616 227.164 212.765C222.939 213.872 218.98 215.287 215.289 217.01C211.597 218.692 208.377 220.661 205.628 222.917C202.921 225.132 200.788 227.614 199.229 230.362C197.67 233.07 196.891 236.044 196.891 239.284C196.891 241.787 197.424 244.002 198.491 245.93C199.598 247.817 201.095 249.478 202.982 250.914C204.869 252.308 207.084 253.518 209.628 254.544C212.212 255.528 215.001 256.369 217.996 257.067C220.99 257.723 224.108 258.277 227.349 258.728C230.589 259.138 233.85 259.487 237.132 259.774L246.608 260.574C251.325 260.984 255.55 261.415 259.283 261.866C263.016 262.317 266.297 262.892 269.128 263.589C273.845 264.779 277.332 266.481 279.588 268.696C281.844 270.911 282.972 273.865 282.972 277.556C282.972 281.125 281.988 284.263 280.019 286.971C278.05 289.678 275.363 291.954 271.958 293.8C268.553 295.646 264.574 297.041 260.021 297.984C255.468 298.928 250.587 299.4 245.377 299.4C239.716 299.4 234.732 299.01 230.425 298.231C226.159 297.492 222.57 296.672 219.657 295.769C216.786 294.826 214.591 293.964 213.073 293.185C211.556 292.406 210.735 291.975 210.612 291.893C209.874 291.483 209.505 290.826 209.505 289.924C209.505 289.227 209.751 288.673 210.243 288.263C210.735 287.811 211.269 287.586 211.843 287.586C212.294 287.586 212.704 287.709 213.073 287.955C213.114 287.955 213.812 288.324 215.165 289.063C216.56 289.76 218.611 290.539 221.319 291.401C224.067 292.262 227.451 293.042 231.471 293.739C235.491 294.436 240.167 294.785 245.5 294.785C250.792 294.785 255.468 294.354 259.529 293.493C263.59 292.631 266.995 291.442 269.743 289.924C272.532 288.365 274.624 286.56 276.019 284.509C277.455 282.417 278.173 280.161 278.173 277.741C278.173 276.305 277.906 275.075 277.373 274.049C276.881 272.983 276.183 272.08 275.281 271.342C274.378 270.562 273.291 269.906 272.02 269.373C270.789 268.84 269.435 268.388 267.959 268.019C266.4 267.609 264.718 267.26 262.913 266.973C261.149 266.686 259.324 266.44 257.437 266.235C255.55 266.03 253.643 265.845 251.715 265.681C249.828 265.517 247.961 265.353 246.115 265.189L236.64 264.389C229.174 263.774 222.652 262.83 217.073 261.558C211.535 260.246 206.92 258.584 203.229 256.574C199.537 254.523 196.768 252.083 194.922 249.252C193.076 246.422 192.153 243.12 192.153 239.346C192.153 235.49 193.014 231.962 194.737 228.763C196.501 225.522 198.88 222.61 201.875 220.025C204.91 217.441 208.438 215.205 212.458 213.318C216.519 211.391 220.847 209.791 225.441 208.519C230.035 207.247 234.794 206.304 239.716 205.689C244.639 205.032 249.479 204.704 254.237 204.704C260.185 204.704 265.354 205.073 269.743 205.812C274.173 206.509 277.947 207.432 281.065 208.581C284.223 209.688 286.807 210.96 288.817 212.396C290.827 213.831 292.448 215.246 293.678 216.641C296.591 220.046 298.047 223.922 298.047 228.27C298.047 229.706 297.903 231.08 297.616 232.393ZM320.198 290.232C319.173 290.232 318.27 290.15 317.491 289.986C316.875 291.216 316.137 292.365 315.276 293.431C314.414 294.457 313.409 295.359 312.261 296.139C311.153 296.918 309.902 297.533 308.507 297.984C307.113 298.436 305.595 298.661 303.954 298.661C302.026 298.661 300.262 298.313 298.662 297.615C297.063 296.959 295.668 296.036 294.478 294.846C293.289 293.616 292.366 292.16 291.709 290.478C291.053 288.755 290.725 286.868 290.725 284.817C290.725 282.192 291.197 279.915 292.14 277.987C293.084 276.018 294.171 274.398 295.401 273.126C296.632 271.814 297.862 270.85 299.093 270.234C300.324 269.578 301.247 269.25 301.862 269.25C302.559 269.25 303.072 269.434 303.4 269.804C303.769 270.173 303.954 270.665 303.954 271.28C303.954 271.978 303.728 272.511 303.277 272.88C302.867 273.208 302.334 273.536 301.677 273.865C301.021 274.193 300.324 274.664 299.585 275.28C298.847 275.854 298.15 276.592 297.493 277.495C296.878 278.397 296.365 279.464 295.955 280.694C295.545 281.925 295.34 283.299 295.34 284.817C295.34 286.171 295.545 287.442 295.955 288.632C296.365 289.78 296.96 290.785 297.739 291.647C298.519 292.467 299.442 293.124 300.508 293.616C301.575 294.067 302.764 294.293 304.077 294.293C306.415 294.293 308.343 293.759 309.861 292.693C311.42 291.585 312.609 290.191 313.43 288.509C311.009 287.237 309.02 285.432 307.461 283.094C305.902 280.756 305.123 278.131 305.123 275.218C305.123 272.88 305.677 270.973 306.784 269.496C307.933 268.019 309.43 267.281 311.276 267.281C312.384 267.281 313.43 267.547 314.414 268.081C315.399 268.614 316.26 269.455 316.998 270.603C317.778 271.752 318.393 273.229 318.844 275.034C319.296 276.839 319.521 278.992 319.521 281.494C319.521 282.807 319.357 284.181 319.029 285.617C319.275 285.658 319.521 285.678 319.767 285.678C320.013 285.678 320.28 285.678 320.567 285.678C321.962 285.678 323.213 285.514 324.321 285.186C325.428 284.858 326.433 284.366 327.336 283.709C328.238 283.053 329.038 282.212 329.735 281.187C330.474 280.161 331.171 278.972 331.827 277.618C331.95 277.372 332.217 277.146 332.627 276.941C333.037 276.695 333.448 276.572 333.858 276.572C334.391 276.572 334.883 276.797 335.335 277.249C335.827 277.659 336.073 278.213 336.073 278.91C336.073 279.238 335.991 279.607 335.827 280.018C335.663 280.387 335.499 280.735 335.335 281.064C334.637 282.294 333.817 283.484 332.873 284.632C331.971 285.74 330.884 286.724 329.612 287.586C328.382 288.406 326.987 289.063 325.428 289.555C323.869 290.047 322.126 290.273 320.198 290.232ZM309.676 274.726C309.676 275.505 309.779 276.326 309.984 277.187C310.189 278.049 310.497 278.91 310.907 279.771C311.358 280.592 311.891 281.392 312.507 282.171C313.163 282.91 313.922 283.545 314.783 284.079C314.906 283.217 314.968 282.376 314.968 281.556C314.968 280.448 314.886 279.32 314.722 278.172C314.558 277.023 314.312 275.977 313.983 275.034C313.696 274.049 313.327 273.27 312.876 272.695C312.425 272.08 311.891 271.772 311.276 271.772C311.03 271.772 310.702 271.957 310.292 272.326C309.881 272.695 309.676 273.495 309.676 274.726ZM360.07 290.232C359.044 290.232 358.142 290.15 357.362 289.986C356.747 291.216 356.009 292.365 355.147 293.431C354.286 294.457 353.281 295.359 352.132 296.139C351.025 296.918 349.774 297.533 348.379 297.984C346.984 298.436 345.467 298.661 343.826 298.661C341.898 298.661 340.134 298.313 338.534 297.615C336.934 296.959 335.54 296.036 334.35 294.846C333.16 293.616 332.238 292.16 331.581 290.478C330.925 288.755 330.597 286.868 330.597 284.817C330.597 282.192 331.068 279.915 332.012 277.987C332.955 276.018 334.042 274.398 335.273 273.126C336.504 271.814 337.734 270.85 338.965 270.234C340.195 269.578 341.118 269.25 341.734 269.25C342.431 269.25 342.944 269.434 343.272 269.804C343.641 270.173 343.826 270.665 343.826 271.28C343.826 271.978 343.6 272.511 343.149 272.88C342.739 273.208 342.205 273.536 341.549 273.865C340.893 274.193 340.195 274.664 339.457 275.28C338.719 275.854 338.021 276.592 337.365 277.495C336.75 278.397 336.237 279.464 335.827 280.694C335.417 281.925 335.211 283.299 335.211 284.817C335.211 286.171 335.417 287.442 335.827 288.632C336.237 289.78 336.832 290.785 337.611 291.647C338.391 292.467 339.314 293.124 340.38 293.616C341.447 294.067 342.636 294.293 343.949 294.293C346.287 294.293 348.215 293.759 349.733 292.693C351.291 291.585 352.481 290.191 353.301 288.509C350.881 287.237 348.892 285.432 347.333 283.094C345.774 280.756 344.995 278.131 344.995 275.218C344.995 272.88 345.549 270.973 346.656 269.496C347.805 268.019 349.302 267.281 351.148 267.281C352.255 267.281 353.301 267.547 354.286 268.081C355.27 268.614 356.132 269.455 356.87 270.603C357.65 271.752 358.265 273.229 358.716 275.034C359.167 276.839 359.393 278.992 359.393 281.494C359.393 282.807 359.229 284.181 358.901 285.617C359.147 285.658 359.393 285.678 359.639 285.678C359.885 285.678 360.152 285.678 360.439 285.678C361.834 285.678 363.085 285.514 364.192 285.186C365.3 284.858 366.305 284.366 367.207 283.709C368.11 283.053 368.91 282.212 369.607 281.187C370.345 280.161 371.043 278.972 371.699 277.618C371.822 277.372 372.089 277.146 372.499 276.941C372.909 276.695 373.319 276.572 373.73 276.572C374.263 276.572 374.755 276.797 375.206 277.249C375.699 277.659 375.945 278.213 375.945 278.91C375.945 279.238 375.863 279.607 375.699 280.018C375.534 280.387 375.37 280.735 375.206 281.064C374.509 282.294 373.689 283.484 372.745 284.632C371.843 285.74 370.756 286.724 369.484 287.586C368.253 288.406 366.859 289.063 365.3 289.555C363.741 290.047 361.998 290.273 360.07 290.232ZM349.548 274.726C349.548 275.505 349.651 276.326 349.856 277.187C350.061 278.049 350.369 278.91 350.779 279.771C351.23 280.592 351.763 281.392 352.379 282.171C353.035 282.91 353.794 283.545 354.655 284.079C354.778 283.217 354.84 282.376 354.84 281.556C354.84 280.448 354.758 279.32 354.594 278.172C354.43 277.023 354.183 275.977 353.855 275.034C353.568 274.049 353.199 273.27 352.748 272.695C352.296 272.08 351.763 271.772 351.148 271.772C350.902 271.772 350.574 271.957 350.163 272.326C349.753 272.695 349.548 273.495 349.548 274.726ZM385.236 291.462C385.892 290.109 386.651 288.632 387.512 287.032C388.374 285.391 389.297 283.75 390.281 282.11C391.266 280.428 392.291 278.766 393.358 277.126C394.465 275.485 395.614 273.926 396.804 272.449C397.993 271.014 399.183 269.988 400.372 269.373C401.603 268.716 402.751 268.388 403.818 268.388C405.951 268.388 407.53 269.168 408.556 270.726C409.581 272.285 410.094 274.213 410.094 276.51C410.094 277.044 410.053 277.7 409.971 278.479C409.93 279.218 409.869 280.018 409.786 280.879C409.745 281.74 409.684 282.622 409.602 283.525C409.561 284.386 409.54 285.207 409.54 285.986C409.54 286.971 409.581 287.914 409.663 288.816C409.786 289.719 409.992 290.519 410.279 291.216C410.566 291.872 410.976 292.406 411.509 292.816C412.043 293.185 412.74 293.37 413.601 293.37C415.16 293.37 416.678 292.775 418.155 291.585C419.631 290.355 420.985 288.919 422.216 287.278C423.487 285.596 424.574 283.894 425.477 282.171C426.42 280.448 427.118 279.054 427.569 277.987C427.774 277.536 428.061 277.187 428.43 276.941C428.84 276.695 429.271 276.572 429.722 276.572C430.42 276.572 430.973 276.839 431.384 277.372C431.835 277.864 432.061 278.397 432.061 278.972C432.061 279.259 431.999 279.546 431.876 279.833C431.712 280.161 431.384 280.838 430.891 281.863C430.399 282.889 429.743 284.079 428.922 285.432C428.143 286.745 427.22 288.16 426.154 289.678C425.087 291.155 423.897 292.508 422.585 293.739C421.313 294.969 419.919 295.995 418.401 296.815C416.924 297.636 415.365 298.046 413.724 298.046C411.879 298.046 410.381 297.697 409.233 297C408.084 296.262 407.182 295.318 406.525 294.17C405.869 292.98 405.418 291.688 405.172 290.293C404.967 288.857 404.864 287.422 404.864 285.986C404.864 285.371 404.885 284.673 404.926 283.894C405.008 283.115 405.09 282.294 405.172 281.433C405.295 280.571 405.377 279.71 405.418 278.848C405.5 277.987 405.541 277.167 405.541 276.387C405.541 275.075 405.336 274.193 404.926 273.741C404.515 273.249 404.146 273.003 403.818 273.003C403.162 273.003 402.403 273.393 401.541 274.172C400.721 274.911 399.839 275.895 398.896 277.126C397.993 278.356 397.05 279.751 396.065 281.31C395.122 282.827 394.219 284.345 393.358 285.863C392.537 287.381 391.758 288.837 391.02 290.232C390.322 291.585 389.769 292.713 389.358 293.616C388.538 295.339 387.718 296.487 386.897 297.062C386.077 297.677 385.236 297.984 384.374 297.984C383.185 297.984 382.221 297.636 381.482 296.938C380.785 296.2 380.436 295.175 380.436 293.862C380.436 293.575 380.477 293.021 380.559 292.201C380.642 291.339 380.744 290.334 380.867 289.186C380.99 287.996 381.113 286.724 381.236 285.371C381.359 284.017 381.482 282.684 381.606 281.371C381.729 280.018 381.831 278.766 381.913 277.618C381.995 276.469 382.036 275.505 382.036 274.726C382.036 273.7 381.995 272.716 381.913 271.772C381.831 270.829 381.667 270.255 381.421 270.05C381.052 270.173 380.395 270.952 379.452 272.388C378.508 273.782 377.298 276.264 375.822 279.833C375.617 280.284 375.309 280.633 374.899 280.879C374.488 281.125 374.058 281.248 373.607 281.248C372.909 281.248 372.355 281.023 371.945 280.571C371.535 280.079 371.33 279.525 371.33 278.91C371.33 278.623 371.391 278.315 371.514 277.987C373.36 273.598 375.083 270.378 376.683 268.327C378.324 266.235 379.944 265.189 381.544 265.189C382.487 265.189 383.287 265.435 383.944 265.927C384.6 266.378 385.113 266.994 385.482 267.773C385.892 268.552 386.179 269.414 386.343 270.357C386.548 271.301 386.651 272.265 386.651 273.249C386.651 273.988 386.589 275.136 386.466 276.695C386.384 278.254 386.261 279.936 386.097 281.74C385.933 283.504 385.769 285.268 385.605 287.032C385.482 288.796 385.359 290.273 385.236 291.462ZM471.563 280.694C471.522 281.31 471.276 281.843 470.825 282.294C470.415 282.704 469.881 282.91 469.225 282.91H469.163C468.507 282.91 467.953 282.684 467.502 282.233C467.092 281.74 466.907 281.166 466.948 280.51L468.979 210.857C469.02 210.201 469.266 209.647 469.717 209.196C470.168 208.745 470.722 208.54 471.379 208.581C472.035 208.622 472.568 208.868 472.978 209.319C473.43 209.77 473.655 210.324 473.655 210.98L471.563 280.694ZM471.994 295.646C471.994 296.59 471.666 297.369 471.009 297.984C470.394 298.641 469.615 298.969 468.671 298.969C467.728 298.969 466.928 298.641 466.271 297.984C465.656 297.369 465.349 296.59 465.349 295.646C465.349 294.703 465.656 293.923 466.271 293.308C466.928 292.652 467.728 292.324 468.671 292.324C469.615 292.324 470.394 292.652 471.009 293.308C471.666 293.923 471.994 294.703 471.994 295.646Z" fill="#FFBD3E"/>
</svg>
