<svg width="163" height="171" viewBox="0 0 163 171" fill="none" xmlns="http://www.w3.org/2000/svg">
<path d="M3.75312 12.7084C2.12387 11.1456 1.30925 9.4665 1.30925 7.671C1.30925 6.2745 1.75812 5.06087 2.65587 4.03012C4.35162 2.03512 6.729 1.03762 9.788 1.03762H33.2791C34.7421 1.00437 36.0223 0.887997 37.1195 0.688497C38.2168 0.455746 38.915 0.27287 39.2143 0.13987V8.81812H38.7155V8.21962C38.7155 6.72337 38.2666 5.50974 37.3689 4.57874C36.4711 3.64774 35.2575 3.16562 33.728 3.13237H26.9949V32.409C27.0614 33.606 27.61 34.5037 28.6408 35.1022C29.1063 35.3682 29.6216 35.5012 30.1869 35.5012H30.8353V36H15.6733V35.5012H16.3216C17.1861 35.5012 17.9176 35.202 18.5161 34.6035C19.1479 34.005 19.4804 33.2901 19.5136 32.4589V3.13237H9.788C8.42475 3.13237 7.22775 3.38175 6.197 3.88049C4.10225 4.878 3.05487 6.44075 3.05487 8.56875C3.05487 9.83225 3.45387 11.129 4.25187 12.459L3.75312 12.7084ZM15.3241 68.0376C15.8894 68.0376 16.9201 68.0376 18.4164 68.0376C19.9126 68.0376 22.689 68.0542 26.7455 68.0875C32.6308 68.154 37.2858 69.75 40.7105 72.8755C44.1353 75.9677 45.8476 80.2071 45.8476 85.5936C45.8476 90.9469 44.1353 95.1862 40.7105 98.3117C37.2858 101.437 32.6308 103 26.7455 103H8.64088V102.501H9.28925C10.1205 102.501 10.8354 102.219 11.4339 101.653C12.0656 101.055 12.4148 100.34 12.4813 99.5087V70.3319C8.75725 70.5979 5.9975 71.4624 4.202 72.9254C3.30425 73.6236 2.606 74.3385 2.10725 75.07C1.57525 75.8015 1.05987 76.6826 0.561125 77.7134L0.0623743 77.5139C0.860374 74.1889 2.52287 71.7949 5.04988 70.3319C7.61013 68.8356 11.0349 68.0709 15.3241 68.0376ZM26.147 100.905C29.7048 100.905 32.5144 99.5254 34.5759 96.7656C36.6706 94.0059 37.718 90.2652 37.718 85.5437C37.718 80.8222 36.6706 77.0982 34.5759 74.3717C32.5144 71.6452 29.738 70.282 26.2468 70.282C26.2135 70.282 26.1803 70.282 26.147 70.282H19.9625V100.905H26.147Z" fill="#FFBD3E"/>
<path d="M62.4296 35.5867C63.1459 35.5867 63.752 35.3388 64.2479 34.8429C64.7714 34.3194 65.0469 33.7133 65.0744 33.0246V22.3214H48.1725V33.0246C48.1725 33.7409 48.4342 34.347 48.9577 34.8429C49.4811 35.3388 50.101 35.5867 50.8173 35.5867H51.3545V36H42.3043V35.5867H42.8416C43.5579 35.5867 44.164 35.3388 44.6599 34.8429C45.1833 34.347 45.4588 33.7409 45.4864 33.0246V10.0479C45.4588 9.3316 45.1833 8.7255 44.6599 8.2296C44.164 7.7337 43.5579 7.48575 42.8416 7.48575H42.3043V7.0725H51.3545V7.48575H50.8173C50.101 7.48575 49.4811 7.7337 48.9577 8.2296C48.4618 8.7255 48.2 9.3316 48.1725 10.0479V21.0817H65.0744V10.0479C65.0469 9.0561 64.6061 8.31225 63.752 7.81635C63.3388 7.59595 62.898 7.48575 62.4296 7.48575H61.8924V7.0725H70.9426V7.48575H70.4053C69.689 7.48575 69.0692 7.74747 68.5457 8.27092C68.0498 8.76682 67.7881 9.37292 67.7605 10.0892V33.0246C67.7881 33.7409 68.0498 34.347 68.5457 34.8429C69.0692 35.3388 69.689 35.5867 70.4053 35.5867H70.9426V36H61.8924V35.5867H62.4296ZM75.4254 35.5867C76.1417 35.5867 76.7478 35.3388 77.2437 34.8429C77.7671 34.3194 78.0426 33.6996 78.0702 32.9833V9.84127C78.0702 9.18007 77.8084 8.62907 77.285 8.18827C76.7615 7.71992 76.1417 7.48575 75.4254 7.48575H74.9295L74.8881 7.0725H86.9964C87.8504 7.0725 88.7733 6.98985 89.7651 6.82455C90.7845 6.65925 91.5008 6.49395 91.914 6.32865V11.5356H91.5008V10.7917C91.5008 10.1305 91.2666 9.56577 90.7983 9.09742C90.3575 8.62907 89.8202 8.38112 89.1866 8.35357H80.7563V21.123H87.7402C88.2912 21.0954 88.7596 20.8888 89.1453 20.5031C89.531 20.1174 89.7238 19.6353 89.7238 19.0567V18.4782H90.1371V25.0075H89.7238V24.3877C89.7238 23.8367 89.531 23.3683 89.1453 22.9826C88.7871 22.5969 88.3325 22.3903 87.7815 22.3627H80.7563V34.7189H86.6658C88.7045 34.7189 90.261 34.2643 91.3355 33.3552C92.4099 32.446 93.3053 31.0961 94.0216 29.3053H94.4349L92.038 36H74.8881V35.5867H75.4254ZM51.0242 102.587C51.7405 102.587 52.3466 102.339 52.8425 101.843C53.3659 101.319 53.6414 100.7 53.669 99.9833V77.0479C53.6414 76.3316 53.3659 75.7255 52.8425 75.2296C52.3466 74.7337 51.7405 74.4857 51.0242 74.4857H50.487V74.0725H59.5371V74.4857H58.9999C58.2836 74.4857 57.6637 74.7337 57.1403 75.2296C56.6444 75.7255 56.3827 76.3316 56.3551 77.0479V99.9833C56.3551 100.7 56.6168 101.319 57.1403 101.843C57.6637 102.339 58.2836 102.587 58.9999 102.587H59.5371V103H50.487V102.587H51.0242ZM84.6995 74.0725H93.0059V74.4857H92.6339C91.9452 74.4857 91.2702 74.7061 90.609 75.1469C89.9478 75.5602 89.4244 76.1938 89.0387 77.0479L79.0793 99.3221C78.06 101.554 77.5503 102.972 77.5503 103.579H77.1784L65.5661 77.0892C65.1804 76.2076 64.6431 75.5602 63.9544 75.1469C63.2932 74.7061 62.6182 74.4857 61.9295 74.4857H61.5989V74.0725H70.897V74.4857H70.5251C69.9465 74.4857 69.5057 74.6786 69.2027 75.0643C68.9272 75.4224 68.7894 75.7668 68.7894 76.0974C68.7894 76.4005 68.8583 76.7173 68.996 77.0479L77.633 98.7022L86.6418 77.0479C86.752 76.7173 86.8071 76.4005 86.8071 76.0974C86.8071 75.7668 86.6556 75.4224 86.3525 75.0643C86.077 74.6786 85.65 74.4857 85.0715 74.4857H84.6995V74.0725ZM95.5777 102.587C96.294 102.587 96.9001 102.339 97.396 101.843C97.9194 101.319 98.1949 100.7 98.2225 99.9833V77.0479C98.1949 76.3316 97.9194 75.7255 97.396 75.2296C96.9001 74.7337 96.294 74.4857 95.5777 74.4857H95.0405V74.0725H104.091V74.4857H103.553C102.837 74.4857 102.217 74.7337 101.694 75.2296C101.198 75.7255 100.936 76.3316 100.909 77.0479V99.9833C100.909 100.7 101.17 101.319 101.694 101.843C102.217 102.339 102.837 102.587 103.553 102.587H104.091V103H95.0405V102.587H95.5777ZM138.675 74.4857C137.986 74.4857 137.394 74.7337 136.898 75.2296C136.402 75.6979 136.141 76.2765 136.113 76.9652V98.2889C136.113 99.8868 136.209 101.402 136.402 102.835L136.485 103.579H136.113L113.591 79.5274V100.107C113.591 100.796 113.839 101.388 114.335 101.884C114.831 102.353 115.423 102.587 116.112 102.587H116.897V103H108.384V102.587H109.169C109.858 102.587 110.45 102.353 110.946 101.884C111.442 101.388 111.69 100.782 111.69 100.066V78.6182C111.69 76.9377 111.593 75.4362 111.401 74.1138L111.318 73.4526H111.731L134.253 97.5038V77.0066C134.226 76.2903 133.964 75.6979 133.468 75.2296C132.972 74.7337 132.38 74.4857 131.691 74.4857H130.906V74.0725H139.419V74.4857H138.675ZM143.884 102.587C144.601 102.587 145.207 102.339 145.703 101.843C146.226 101.319 146.502 100.7 146.529 99.9833V76.8413C146.529 76.1801 146.267 75.6291 145.744 75.1883C145.221 74.7199 144.601 74.4857 143.884 74.4857H143.388L143.347 74.0725H155.455C156.309 74.0725 157.232 73.9898 158.224 73.8245C159.243 73.6592 159.96 73.4939 160.373 73.3286V78.5356H159.96V77.7917C159.96 77.1305 159.726 76.5658 159.257 76.0974C158.816 75.6291 158.279 75.3811 157.646 75.3536H149.215V88.123H156.199C156.75 88.0954 157.219 87.8888 157.604 87.5031C157.99 87.1174 158.183 86.6353 158.183 86.0567V85.4782H158.596V92.0075H158.183V91.3877C158.183 90.8367 157.99 90.3683 157.604 89.9826C157.246 89.5969 156.792 89.3903 156.241 89.3627H149.215V101.719H155.125C157.163 101.719 158.72 101.264 159.794 100.355C160.869 99.446 161.764 98.0961 162.481 96.3053H162.894L160.497 103H143.347V102.587H143.884ZM83.519 141.486C82.8303 141.486 82.2379 141.734 81.742 142.23C81.2461 142.698 80.9844 143.276 80.9569 143.965V165.289C80.9569 166.887 81.0533 168.402 81.2461 169.835L81.3288 170.579H80.9569L58.4347 146.527V167.107C58.4347 167.796 58.6827 168.388 59.1786 168.884C59.6745 169.353 60.2668 169.587 60.9556 169.587H61.7407V170H53.2278V169.587H54.013C54.7017 169.587 55.294 169.353 55.7899 168.884C56.2858 168.388 56.5338 167.782 56.5338 167.066V145.618C56.5338 143.938 56.4374 142.436 56.2445 141.114L56.1619 140.453H56.5751L79.0972 164.504V144.007C79.0697 143.29 78.808 142.698 78.3121 142.23C77.8162 141.734 77.2238 141.486 76.5351 141.486H75.7499V141.072H84.2629V141.486H83.519ZM88.7282 169.587C89.4445 169.587 90.0506 169.339 90.5465 168.843C91.07 168.319 91.3455 167.7 91.373 166.983V143.841C91.373 143.18 91.1113 142.629 90.5879 142.188C90.0644 141.72 89.4445 141.486 88.7282 141.486H88.2323L88.191 141.072H100.299C101.153 141.072 102.076 140.99 103.068 140.825C104.087 140.659 104.804 140.494 105.217 140.329V145.536H104.804V144.792C104.804 144.131 104.569 143.566 104.101 143.097C103.66 142.629 103.123 142.381 102.489 142.354H94.0592V155.123H101.043C101.594 155.095 102.062 154.889 102.448 154.503C102.834 154.117 103.027 153.635 103.027 153.057V152.478H103.44V159.008H103.027V158.388C103.027 157.837 102.834 157.368 102.448 156.983C102.09 156.597 101.635 156.39 101.084 156.363H94.0592V168.719H99.9686C102.007 168.719 103.564 168.264 104.638 167.355C105.713 166.446 106.608 165.096 107.324 163.305H107.738L105.341 170H88.191V169.587H88.7282Z" fill="#2C2222"/>
<path d="M21.5585 147.706C20.96 146.442 20.6608 145.245 20.6608 144.115C20.6608 142.951 20.8104 141.887 21.1096 140.923C21.4089 139.925 21.9076 138.961 22.6059 138.03C23.3041 137.066 24.285 136.268 25.5485 135.636C27.2775 134.738 29.3556 134.289 31.7829 134.289C34.9749 134.289 38.0006 135.104 40.8601 136.733C44.6174 138.861 47.2275 141.804 48.6905 145.561C49.5218 147.623 49.9374 149.834 49.9374 152.195C49.9374 157.747 47.9258 162.219 43.9025 165.611C39.9125 169.002 34.6923 170.698 28.2418 170.698C21.8245 170.698 16.5876 169.002 12.5311 165.611C8.50788 162.219 6.49625 157.764 6.49625 152.244C6.49625 148.121 7.66 144.547 9.9875 141.521C12.3483 138.462 15.5236 136.384 19.5136 135.287L19.8129 135.736C18.1171 137.166 16.837 139.26 15.9725 142.02C15.108 144.78 14.6758 147.756 14.6758 150.948C14.6758 156.334 15.9226 160.623 18.4164 163.815C20.9101 167.007 24.1686 168.603 28.1919 168.603C32.2484 168.603 35.5069 167.107 37.9674 164.115C40.4611 161.089 41.708 157.099 41.708 152.145C41.708 149.152 41.2425 146.459 40.3115 144.065C39.4138 141.638 38.1004 139.776 36.3714 138.479C34.6424 137.149 32.7139 136.484 30.5859 136.484C28.2251 136.484 26.3133 137.099 24.8503 138.329C22.7888 140.092 21.758 142.336 21.758 145.062C21.758 145.927 21.8744 146.808 22.1071 147.706H21.5585Z" fill="#FFBD3E"/>
</svg>
